<?xml version="1.0" encoding="utf-8"?>
<!-- Generator: Adobe Illustrator 23.0.1, SVG Export Plug-In . SVG Version: 6.00 Build 0)  -->
<svg version="1.1" id="Layer_1" xmlns="http://www.w3.org/2000/svg" xmlns:xlink="http://www.w3.org/1999/xlink" x="0px" y="0px"
	 viewBox="0 0 420 110" style="enable-background:new 0 0 420 110;" xml:space="preserve">
<style type="text/css">
	.st0{fill:#FFFFFF;}
	.st1{opacity:0.52;fill:#FFFFFF;}
	.st2{opacity:0.3;fill:#FFFFFF;}
	.st3{opacity:0.9;fill:#FFFFFF;}
	.st4{opacity:0.4;fill:#FFFFFF;}
	.st5{opacity:0.77;fill:#FFFFFF;}
	.st6{opacity:0.64;fill:#FFFFFF;}
</style>
<g>
	<path class="st0" d="M126.98,48.5v2.51h6.36v5.69h-6.36v22.87h-7.09V56.69h-5.44v-5.69h5.44v-2.14c0-8.19,3.91-13.15,11.86-13.15
		h3.36v6.6h-1.96C128.33,42.33,126.92,45.02,126.98,48.5z"/>
	<path class="st0" d="M156.09,51.37l-1.41,6.73c-1.65-0.86-3.12-1.04-4.16-1.04c-4.65,0-7.21,4.52-7.21,12.53v9.97h-7.15V51.01h7.09
		v6.11c1.53-4.77,4.65-6.73,8.19-6.73C153.16,50.4,154.99,50.76,156.09,51.37z"/>
	<path class="st0" d="M185.38,67.76H163.3c0.79,3.97,3.85,5.99,8.07,5.99c3.12,0,6.05-1.22,7.76-3.55l4.71,3.61
		c-2.63,4.16-7.64,6.36-12.84,6.36c-8.56,0-15.04-5.99-15.04-14.92c0-9.11,6.85-14.86,14.98-14.86c8.19,0,14.61,5.69,14.61,14.61
		C185.56,65.8,185.5,66.72,185.38,67.76z M178.47,62.81c-0.43-3.91-3.42-6.18-7.4-6.18c-3.85,0-6.91,1.83-7.76,6.18H178.47z"/>
	<path class="st0" d="M187.73,70.63h6.66c0,1.96,1.71,3.79,4.71,3.79c2.81,0,4.65-1.28,4.65-3.12c0-1.59-1.22-2.32-3.36-2.81
		l-3.79-0.98c-6.42-1.71-8.07-5.14-8.07-8.74c0-4.46,4.4-8.38,10.64-8.38c5.08,0,10.82,2.51,10.76,8.93h-6.79
		c0-2.02-1.77-3.24-3.79-3.24c-2.2,0-3.73,1.22-3.73,3c0,1.47,1.41,2.32,3.06,2.69l4.58,1.22c6.42,1.65,7.58,5.69,7.58,8.32
		c0,5.81-5.81,8.87-11.62,8.87C193.54,80.17,187.85,76.75,187.73,70.63z"/>
	<path class="st0" d="M241.3,63.54v16.02h-7.09V64.21c0-4.52-2.75-6.85-5.93-6.85c-3.24,0-7.28,1.77-7.28,7.28v14.92h-7.09V35.72
		H221v19.63c1.41-3.42,5.99-4.95,8.87-4.95C237.2,50.4,241.3,55.23,241.3,63.54z"/>
	<path class="st1" d="M245.16,75.65c0-2.63,2.14-4.52,4.65-4.52c2.57,0,4.71,1.9,4.71,4.52s-2.14,4.52-4.71,4.52
		C247.3,80.17,245.16,78.28,245.16,75.65z"/>
	<path class="st0" d="M256.43,65.25c0-9.05,7.28-14.86,15.53-14.86c4.95,0,8.99,2.14,11.62,5.5l-5.08,3.97
		c-1.47-1.77-3.91-2.87-6.42-2.87c-4.95,0-8.5,3.42-8.5,8.25c0,4.77,3.55,8.25,8.5,8.25c2.51,0,4.95-1.1,6.42-2.87l5.08,3.97
		c-2.63,3.3-6.66,5.5-11.62,5.5C263.71,80.11,256.43,74.3,256.43,65.25z"/>
	<path class="st0" d="M284.49,65.19c0-9.05,7.03-14.8,15.16-14.8c8.13,0,15.22,5.75,15.22,14.8s-7.09,14.98-15.22,14.98
		C291.52,80.17,284.49,74.24,284.49,65.19z M307.72,65.19c0-4.89-3.67-8.19-8.07-8.19c-4.4,0-8.01,3.3-8.01,8.19
		c0,5.01,3.61,8.38,8.01,8.38C304.05,73.57,307.72,70.21,307.72,65.19z"/>
	<path class="st0" d="M348.19,35.72v43.84h-7.09v-3.85c-1.96,3.06-5.99,4.46-9.48,4.46c-7.52,0-14.06-5.81-14.06-14.92
		c0-9.17,6.48-14.86,14-14.86c3.61,0,7.58,1.41,9.54,4.4V35.72H348.19z M340.97,65.19c0-5.01-4.16-8.19-8.25-8.19
		c-4.4,0-8.01,3.42-8.01,8.19c0,4.77,3.61,8.32,8.01,8.32C337.06,73.51,340.97,70.21,340.97,65.19z"/>
	<path class="st0" d="M380.5,67.76h-22.07c0.79,3.97,3.85,5.99,8.07,5.99c3.12,0,6.05-1.22,7.76-3.55l4.71,3.61
		c-2.63,4.16-7.64,6.36-12.84,6.36c-8.56,0-15.04-5.99-15.04-14.92c0-9.11,6.85-14.86,14.98-14.86c8.19,0,14.61,5.69,14.61,14.61
		C380.69,65.8,380.63,66.72,380.5,67.76z M373.6,62.81c-0.43-3.91-3.42-6.18-7.4-6.18c-3.85,0-6.91,1.83-7.77,6.18H373.6z"/>
	<path class="st0" d="M382.86,70.63h6.66c0,1.96,1.71,3.79,4.71,3.79c2.81,0,4.65-1.28,4.65-3.12c0-1.59-1.22-2.32-3.36-2.81
		l-3.79-0.98c-6.42-1.71-8.07-5.14-8.07-8.74c0-4.46,4.4-8.38,10.64-8.38c5.07,0,10.82,2.51,10.76,8.93h-6.79
		c0-2.02-1.77-3.24-3.79-3.24c-2.2,0-3.73,1.22-3.73,3c0,1.47,1.41,2.32,3.06,2.69l4.58,1.22c6.42,1.65,7.58,5.69,7.58,8.32
		c0,5.81-5.81,8.87-11.62,8.87C388.66,80.17,382.98,76.75,382.86,70.63z"/>
	
		<rect x="71.08" y="42.84" transform="matrix(0.7071 0.7071 -0.7071 0.7071 62.1514 -42.2884)" class="st0" width="22.08" height="22.08"/>
	
		<rect x="39.86" y="42.84" transform="matrix(0.7071 0.7071 -0.7071 0.7071 53.0053 -20.2078)" class="st1" width="22.08" height="22.08"/>
	<path class="st2" d="M19.67,69.49L19.67,69.49c-8.62-8.62-8.62-22.6,0-31.23l0,0l15.61,15.61L19.67,69.49z"/>
	
		<rect x="55.47" y="27.23" transform="matrix(0.7071 0.7071 -0.7071 0.7071 46.538 -35.8211)" class="st3" width="22.08" height="22.08"/>
	<path class="st4" d="M50.9,38.27L35.28,22.65l0,0c8.62-8.62,22.6-8.62,31.23,0l0,0L50.9,38.27z"/>
	
		<rect x="55.47" y="58.45" transform="matrix(0.7071 0.7071 -0.7071 0.7071 68.6186 -26.675)" class="st5" width="22.08" height="22.08"/>
	<path class="st6" d="M35.28,85.11L35.28,85.11L50.9,69.49l15.61,15.61l0,0C57.89,93.73,43.91,93.73,35.28,85.11z"/>
</g>
</svg>
