<svg version="1" xmlns="http://www.w3.org/2000/svg" width="1173.333" height="1173.333" viewBox="0 0 880.000000 880.000000"><path d="M370.4 49c-48.5 5.1-91.8 26-130.9 63.3l-8 7.6 80 80 80 80.1-79.8 79.7-79.7 79.8-80-80-80-80-4.1 4c-6 5.8-22.6 25.8-29 35C-6.7 383.6-11.7 457 24.5 530.8c7.9 16.2 15.5 29 25.3 42.7 6.8 9.5 18 23.2 20.7 25.5 1.4 1.2 11-8 81.6-78.6l79.9-79.9 79.7 79.8 79.8 79.7-80 80.1-80 80 5.4 5c8 7.5 29.2 23 40.6 29.8 41.6 24.8 80.4 36.5 120.5 36.5 44.6 0 86.2-15.3 126.8-46.6 8.1-6.2 51.9-49.3 179.2-176.5L872.5 440l-162-162.1C609.4 176.8 544.6 112.6 538 107.3c-37.7-30.6-82.2-50.9-124.3-56.8-13.6-1.9-33.1-2.6-43.3-1.5z"/></svg>